<svg xmlns="http://www.w3.org/2000/svg" xmlns:xlink="http://www.w3.org/1999/xlink" id="Layer_1" x="0" y="0" version="1.1" viewBox="0 0 144 68.5" xml:space="preserve" style="enable-background:new 0 0 144 68.5"><path d="M144,57.9c0,1-0.8,1.7-1.7,1.7H1.7c-1,0-1.7-0.8-1.7-1.7s0.8-1.7,1.7-1.7h140.5C143.2,56.1,144,56.9,144,57.9z M15.6,50.1h101.6l13.3-33.5l-56.6,4.8v-8.3H25.1v12.4L8.6,26.9L15.6,50.1z M66.4,8.9h-34V0h34.1L66.4,8.9z M124.8,65H19.2	c-1,0-1.7,0.8-1.7,1.7s0.8,1.7,1.7,1.7h105.5c1,0,1.7-0.8,1.7-1.7S125.7,65,124.8,65z" class="st0"/></svg>